<svg width="743.70135" height="163.52" xmlns="http://www.w3.org/2000/svg">
 <metadata id="metadata8">image/svg+xml</metadata>
 <defs>
  <clipPath clipPathUnits="userSpaceOnUse" id="clipPath22">
   <path d="m-18.75,1126.14003l595.276,0l0,-841.89l-595.276,0l0,841.89z" id="path20"/>
  </clipPath>
 </defs>
 <g>
  <title>background</title>
  <rect fill="none" id="canvas_background" height="165.52" width="745.70135" y="-1" x="-1"/>
 </g>
 <g>
  <title>Layer 1</title>
  <g id="g10" transform="matrix(1.33333, 0, 0, -1.33333, 0, 1122.52)">
   <path fill="#000000" fill-rule="nonzero" d="m556.541,717.69703l-555.306,0l0,122.4l555.306,0l0,-122.4z" id="path12"/>
   <path fill="#000000" fill-rule="nonzero" d="m1.735,718.19703l554.306,0l0,121.4l-554.306,0l0,-121.4zm555.306,-1l-556.306,0l0,123.4l556.306,0l0,-123.4z" id="path14"/>
   <g id="g16">
    <g id="g18" clip-path="url(#clipPath22)">
     <g id="g24">
      <path fill="#fcfcfc" fill-rule="nonzero" d="m15.2349,731.69684l94.167,0l0,54.033c-18.522,0.818 -37.043,1.636 -55.565,2.453c0.188,5.433 0.377,10.865 0.565,16.297c4.416,1 8.833,2 13.25,3c0.532,-3.177 1.065,-6.353 1.598,-9.53l39.667,0l0.485,28.147l-94.167,0l0,-47.116c18.389,-0.417 36.778,-0.834 55.167,-1.251c0.333,-8.583 0.666,-17.166 1,-25.75c-4.771,-0.461 -9.54,-0.923 -14.31,-1.385c-0.392,5.51 -0.784,11.02 -1.175,16.53c-13.587,-0.001 -27.174,-0.001 -40.761,-0.001c0.026,-11.809 0.053,-23.618 0.079,-35.427" id="path26"/>
     </g>
     <g id="g28">
      <path fill="#ffffff" fill-rule="nonzero" d="m15.7339,732.19684l93.167,0l0,53.055l-55.581,2.454l0.595,17.177l14.142,3.202l1.616,-9.635l38.752,0l0.468,27.147l-93.158,0l0,-46.128l55.148,-1.249l1.037,-26.691l-15.29,-1.48l-1.179,16.576l-39.794,-0.001l0.077,-34.427zm94.167,-1l-95.165,0l-0.081,36.427l41.727,0.001l1.172,-16.482l13.329,1.29l-0.963,24.808l-55.185,1.251l0,48.105l95.175,0l-0.502,-29.147l-40.581,0l-1.581,9.426l-12.358,-2.798l-0.534,-15.417l55.547,-2.452l0,-55.012z" id="path30"/>
     </g>
     <g id="g32">
      <path fill="#fcfcfc" fill-rule="nonzero" d="m164.0264,809.48001c6.792,0.417 13.583,0.833 20.375,1.25c-0.167,-5.333 -0.333,-10.667 -0.5,-16c-6.833,-0.833 -13.667,-1.667 -20.5,-2.5c0.208,5.75 0.417,11.5 0.625,17.25m53.764,-19.25l0,35.883l-94.167,0l0,-94.416l38.278,0.533c0.667,13.917 1.333,27.833 2,41.75c6.167,0.083 12.333,0.167 18.5,0.25c0.667,-14.178 1.333,-28.355 2,-42.533l33.389,0l0,27.533c-4.908,7.389 -9.815,14.778 -14.722,22.167c0.055,1.666 0.111,3.333 0.166,5c4.852,1.277 9.704,2.555 14.556,3.833" id="path34"/>
     </g>
     <g id="g36">
      <path fill="#ffffff" fill-rule="nonzero" d="m164.50979,809.00931l-0.587,-16.211l19.492,2.377l0.47,15.022l-19.375,-1.188zm-1.629,-17.346l0.662,18.288l21.376,1.312l-0.531,-16.977l-21.507,-2.623zm21.998,-59.467l32.412,0l0,26.883l-14.727,22.174l0.184,5.532l14.543,3.83l0,34.998l-93.167,0l0,-93.41l37.301,0.52l2,41.751l19.453,0.263l2.001,-42.541zm-61.755,-1.006l0,95.423l95.167,0l0,-36.768l-14.569,-3.837l-0.149,-4.468l14.718,-22.159l0,-28.185l-34.366,0l-2,42.528l-17.546,-0.237l-2,-41.75l-39.255,-0.547z" id="path38"/>
     </g>
     <g id="g40">
      <path fill="#fcfcfc" fill-rule="nonzero" d="m232.01269,731.69684l94.167,0c0.073,10.344 0.147,20.689 0.222,31.033c-15.5,0.667 -31,1.334 -46.5,2c-0.5,5.334 -1,10.667 -1.5,16c15.925,0.167 31.851,0.334 47.778,0.5l0,9c-13.26,0.834 -26.519,1.667 -39.778,2.5c-0.167,4.5 -0.333,9 -0.5,13.5c13.425,0.175 26.851,0.35 40.278,0.525l0,19.359l-94.167,0l0,-94.417z" id="path42"/>
     </g>
     <g id="g44">
      <path fill="#ffffff" fill-rule="nonzero" d="m232.51269,732.19684l93.171,0l0.214,30.055l-46.453,1.998l-1.592,16.975l47.827,0.5l0,8.036l-39.762,2.499l-0.535,14.464l40.297,0.525l0,18.365l-93.167,0l0,-93.417zm94.163,-1l-95.163,0l0,95.417l95.167,0l0,-20.353l-40.26,-0.523l0.465,-12.537l39.795,-2.501l0,-9.964l-47.73,-0.499l1.409,-15.025l46.547,-2.002l-0.23,-32.013z" id="path46"/>
     </g>
     <g id="g48">
      <path fill="#fcfcfc" fill-rule="nonzero" d="m389.9014,787.23004c-1.333,5.5 -2.667,11 -4,16.5c5.375,1.958 10.75,3.917 16.125,5.875c1.792,-7.625 3.583,-15.25 5.375,-22.875c-5.833,0.167 -11.667,0.333 -17.5,0.5m44.417,38.867l-94.167,0l0,-94.4c24.084,-0.322 48.167,-0.645 72.25,-0.967c7.306,7.829 14.611,15.658 21.917,23.487l0,71.88z" id="path50"/>
     </g>
     <g id="g52">
      <path fill="#ffffff" fill-rule="nonzero" d="m390.2969,787.71924l16.469,-0.47l-5.098,21.694l-15.176,-5.53l3.805,-15.694zm17.74,-1.507l-18.531,0.529l-4.196,17.306l17.075,6.221l5.652,-24.056zm-67.386,-54.022l71.536,-0.957l21.631,23.181l0,71.183l-93.167,0l0,-93.407zm71.965,-1.963l-72.965,0.976l0,95.394l95.167,0l0,-72.577l-22.202,-23.793z" id="path54"/>
     </g>
     <g id="g56">
      <path fill="#fcfcfc" fill-rule="nonzero" d="m484.61331,786.23004c-0.015,5.333 -0.03,10.667 -0.045,16c7.977,0.215 15.954,0.43 23.932,0.645c-0.25,-7.167 -0.5,-14.334 -0.75,-21.5c-7.712,1.618 -15.424,3.236 -23.137,4.855m-36.072,39.867l0,-94.4l35.35,0c0.337,11.678 0.673,23.355 1.01,35.033c7.449,-0.869 14.9,-1.737 22.349,-2.605c-0.556,-10.81 -1.112,-21.619 -1.667,-32.428l37.124,0l0,94.4l-94.166,0z" id="path58"/>
     </g>
     <g id="g60">
      <path fill="#ffffff" fill-rule="nonzero" d="m485.1123,786.63672l22.159,-4.651l0.71,20.375l-22.912,-0.617l0.043,-15.107zm23.116,-5.874l-24.114,5.062l-0.047,16.893l24.951,0.671l-0.79,-22.626zm-2.119,-48.566l36.098,0l0,93.4l-93.166,0l0,-93.4l34.365,0l1.011,35.094l23.356,-2.724l-1.664,-32.37zm37.098,-1l-38.151,0l1.67,32.485l-21.341,2.489l-1.008,-34.974l-36.336,0l0,95.4l95.166,0l0,-95.4z" id="path62"/>
     </g>
    </g>
   </g>
  </g>
 </g>
</svg>